<mxfile host="app.diagrams.net" modified="2024-03-13T11:23:21.962Z" agent="Mozilla/5.0 (Macintosh; Intel Mac OS X 10_15_7) AppleWebKit/537.36 (KHTML, like Gecko) Chrome/122.0.0.0 Safari/537.36" etag="bo4ET77_cAtRdrLIRcJ1" version="24.0.5" type="device">
  <diagram id="C5RBs43oDa-KdzZeNtuy" name="Page-1">
    <mxGraphModel dx="2074" dy="1121" grid="1" gridSize="10" guides="1" tooltips="1" connect="1" arrows="1" fold="1" page="1" pageScale="1" pageWidth="827" pageHeight="1169" math="0" shadow="0">
      <root>
        <mxCell id="WIyWlLk6GJQsqaUBKTNV-0" />
        <mxCell id="WIyWlLk6GJQsqaUBKTNV-1" parent="WIyWlLk6GJQsqaUBKTNV-0" />
        <mxCell id="FsK_rZOVY-yfSty9KPIe-16" value="" style="edgeStyle=orthogonalEdgeStyle;rounded=0;orthogonalLoop=1;jettySize=auto;html=1;strokeWidth=2;" edge="1" parent="WIyWlLk6GJQsqaUBKTNV-1" source="FsK_rZOVY-yfSty9KPIe-6" target="FsK_rZOVY-yfSty9KPIe-15">
          <mxGeometry relative="1" as="geometry" />
        </mxCell>
        <mxCell id="FsK_rZOVY-yfSty9KPIe-37" value="Start quiz" style="edgeLabel;html=1;align=center;verticalAlign=middle;resizable=0;points=[];" vertex="1" connectable="0" parent="FsK_rZOVY-yfSty9KPIe-16">
          <mxGeometry x="-0.3333" y="1" relative="1" as="geometry">
            <mxPoint as="offset" />
          </mxGeometry>
        </mxCell>
        <mxCell id="FsK_rZOVY-yfSty9KPIe-6" value="Signup Screen" style="whiteSpace=wrap;html=1;shadow=0;strokeWidth=1;spacing=6;spacingTop=-4;rounded=1;fillColor=#dae8fc;strokeColor=#6c8ebf;" vertex="1" parent="WIyWlLk6GJQsqaUBKTNV-1">
          <mxGeometry x="200" y="200" width="120" height="60" as="geometry" />
        </mxCell>
        <mxCell id="FsK_rZOVY-yfSty9KPIe-13" value="" style="ellipse;html=1;shape=startState;fillColor=#000000;strokeColor=#ff0000;" vertex="1" parent="WIyWlLk6GJQsqaUBKTNV-1">
          <mxGeometry x="245" y="120" width="30" height="30" as="geometry" />
        </mxCell>
        <mxCell id="FsK_rZOVY-yfSty9KPIe-14" value="" style="edgeStyle=orthogonalEdgeStyle;html=1;verticalAlign=bottom;endArrow=open;endSize=8;strokeColor=#ff0000;rounded=0;strokeWidth=2;" edge="1" source="FsK_rZOVY-yfSty9KPIe-13" parent="WIyWlLk6GJQsqaUBKTNV-1" target="FsK_rZOVY-yfSty9KPIe-6">
          <mxGeometry relative="1" as="geometry">
            <mxPoint x="260" y="200" as="targetPoint" />
          </mxGeometry>
        </mxCell>
        <mxCell id="FsK_rZOVY-yfSty9KPIe-18" value="" style="edgeStyle=orthogonalEdgeStyle;rounded=0;orthogonalLoop=1;jettySize=auto;html=1;strokeWidth=2;" edge="1" parent="WIyWlLk6GJQsqaUBKTNV-1" source="FsK_rZOVY-yfSty9KPIe-15" target="FsK_rZOVY-yfSty9KPIe-17">
          <mxGeometry relative="1" as="geometry" />
        </mxCell>
        <mxCell id="FsK_rZOVY-yfSty9KPIe-34" value="OK" style="edgeLabel;html=1;align=center;verticalAlign=middle;resizable=0;points=[];" vertex="1" connectable="0" parent="FsK_rZOVY-yfSty9KPIe-18">
          <mxGeometry x="-0.2667" relative="1" as="geometry">
            <mxPoint as="offset" />
          </mxGeometry>
        </mxCell>
        <mxCell id="FsK_rZOVY-yfSty9KPIe-35" style="edgeStyle=orthogonalEdgeStyle;rounded=0;orthogonalLoop=1;jettySize=auto;html=1;exitX=1;exitY=0.5;exitDx=0;exitDy=0;entryX=1;entryY=0.5;entryDx=0;entryDy=0;strokeWidth=2;" edge="1" parent="WIyWlLk6GJQsqaUBKTNV-1" source="FsK_rZOVY-yfSty9KPIe-15" target="FsK_rZOVY-yfSty9KPIe-6">
          <mxGeometry relative="1" as="geometry">
            <Array as="points">
              <mxPoint x="400" y="380" />
              <mxPoint x="400" y="230" />
            </Array>
          </mxGeometry>
        </mxCell>
        <mxCell id="FsK_rZOVY-yfSty9KPIe-36" value="NOK" style="edgeLabel;html=1;align=center;verticalAlign=middle;resizable=0;points=[];" vertex="1" connectable="0" parent="FsK_rZOVY-yfSty9KPIe-35">
          <mxGeometry x="0.1688" y="-2" relative="1" as="geometry">
            <mxPoint y="21" as="offset" />
          </mxGeometry>
        </mxCell>
        <mxCell id="FsK_rZOVY-yfSty9KPIe-15" value="Input&lt;div&gt;validation&lt;/div&gt;" style="rhombus;whiteSpace=wrap;html=1;shadow=0;strokeWidth=1;spacing=6;spacingTop=-4;rounded=1;fillColor=#f5f5f5;fontColor=#333333;strokeColor=#666666;" vertex="1" parent="WIyWlLk6GJQsqaUBKTNV-1">
          <mxGeometry x="200" y="320" width="120" height="120" as="geometry" />
        </mxCell>
        <mxCell id="FsK_rZOVY-yfSty9KPIe-22" value="" style="edgeStyle=orthogonalEdgeStyle;rounded=0;orthogonalLoop=1;jettySize=auto;html=1;strokeWidth=2;" edge="1" parent="WIyWlLk6GJQsqaUBKTNV-1" source="FsK_rZOVY-yfSty9KPIe-17" target="FsK_rZOVY-yfSty9KPIe-21">
          <mxGeometry relative="1" as="geometry" />
        </mxCell>
        <mxCell id="FsK_rZOVY-yfSty9KPIe-38" value="Submit selected answer" style="edgeLabel;html=1;align=center;verticalAlign=middle;resizable=0;points=[];" vertex="1" connectable="0" parent="FsK_rZOVY-yfSty9KPIe-22">
          <mxGeometry x="-0.275" relative="1" as="geometry">
            <mxPoint as="offset" />
          </mxGeometry>
        </mxCell>
        <mxCell id="FsK_rZOVY-yfSty9KPIe-17" value="Question Screen" style="whiteSpace=wrap;html=1;shadow=0;strokeWidth=1;spacing=6;spacingTop=-4;rounded=1;fillColor=#dae8fc;strokeColor=#6c8ebf;" vertex="1" parent="WIyWlLk6GJQsqaUBKTNV-1">
          <mxGeometry x="200" y="500" width="120" height="60" as="geometry" />
        </mxCell>
        <mxCell id="FsK_rZOVY-yfSty9KPIe-24" value="" style="edgeStyle=orthogonalEdgeStyle;rounded=0;orthogonalLoop=1;jettySize=auto;html=1;strokeWidth=2;" edge="1" parent="WIyWlLk6GJQsqaUBKTNV-1" source="FsK_rZOVY-yfSty9KPIe-21" target="FsK_rZOVY-yfSty9KPIe-23">
          <mxGeometry relative="1" as="geometry" />
        </mxCell>
        <mxCell id="FsK_rZOVY-yfSty9KPIe-39" value="Next" style="edgeLabel;html=1;align=center;verticalAlign=middle;resizable=0;points=[];" vertex="1" connectable="0" parent="FsK_rZOVY-yfSty9KPIe-24">
          <mxGeometry x="-0.4" y="1" relative="1" as="geometry">
            <mxPoint x="-1" y="12" as="offset" />
          </mxGeometry>
        </mxCell>
        <mxCell id="FsK_rZOVY-yfSty9KPIe-21" value="Feedback Screen" style="whiteSpace=wrap;html=1;shadow=0;strokeWidth=1;spacing=6;spacingTop=-4;rounded=1;fillColor=#dae8fc;strokeColor=#6c8ebf;" vertex="1" parent="WIyWlLk6GJQsqaUBKTNV-1">
          <mxGeometry x="200" y="640" width="120" height="60" as="geometry" />
        </mxCell>
        <mxCell id="FsK_rZOVY-yfSty9KPIe-27" value="" style="edgeStyle=orthogonalEdgeStyle;rounded=0;orthogonalLoop=1;jettySize=auto;html=1;strokeWidth=2;" edge="1" parent="WIyWlLk6GJQsqaUBKTNV-1" source="FsK_rZOVY-yfSty9KPIe-23" target="FsK_rZOVY-yfSty9KPIe-26">
          <mxGeometry relative="1" as="geometry" />
        </mxCell>
        <mxCell id="FsK_rZOVY-yfSty9KPIe-31" value="No" style="edgeLabel;html=1;align=center;verticalAlign=middle;resizable=0;points=[];" vertex="1" connectable="0" parent="FsK_rZOVY-yfSty9KPIe-27">
          <mxGeometry x="0.0222" y="1" relative="1" as="geometry">
            <mxPoint x="-1" y="-11" as="offset" />
          </mxGeometry>
        </mxCell>
        <mxCell id="FsK_rZOVY-yfSty9KPIe-32" style="edgeStyle=orthogonalEdgeStyle;rounded=0;orthogonalLoop=1;jettySize=auto;html=1;exitX=1;exitY=0.5;exitDx=0;exitDy=0;entryX=1;entryY=0.5;entryDx=0;entryDy=0;strokeWidth=2;" edge="1" parent="WIyWlLk6GJQsqaUBKTNV-1" source="FsK_rZOVY-yfSty9KPIe-23" target="FsK_rZOVY-yfSty9KPIe-17">
          <mxGeometry relative="1" as="geometry">
            <Array as="points">
              <mxPoint x="400" y="820" />
              <mxPoint x="400" y="530" />
            </Array>
          </mxGeometry>
        </mxCell>
        <mxCell id="FsK_rZOVY-yfSty9KPIe-33" value="Yes" style="edgeLabel;html=1;align=center;verticalAlign=middle;resizable=0;points=[];" vertex="1" connectable="0" parent="FsK_rZOVY-yfSty9KPIe-32">
          <mxGeometry x="-0.1652" y="-2" relative="1" as="geometry">
            <mxPoint as="offset" />
          </mxGeometry>
        </mxCell>
        <mxCell id="FsK_rZOVY-yfSty9KPIe-23" value="Is there any question w/o an answer?" style="rhombus;whiteSpace=wrap;html=1;shadow=0;strokeWidth=1;spacing=6;spacingTop=-4;rounded=1;fillColor=#f5f5f5;fontColor=#333333;strokeColor=#666666;" vertex="1" parent="WIyWlLk6GJQsqaUBKTNV-1">
          <mxGeometry x="200" y="760" width="120" height="120" as="geometry" />
        </mxCell>
        <mxCell id="FsK_rZOVY-yfSty9KPIe-25" value="" style="ellipse;html=1;shape=endState;fillColor=#000000;strokeColor=#ff0000;" vertex="1" parent="WIyWlLk6GJQsqaUBKTNV-1">
          <mxGeometry x="245" y="1050" width="30" height="30" as="geometry" />
        </mxCell>
        <mxCell id="FsK_rZOVY-yfSty9KPIe-26" value="Quiz Summary Screen" style="whiteSpace=wrap;html=1;shadow=0;strokeWidth=1;spacing=6;spacingTop=-4;rounded=1;fillColor=#dae8fc;strokeColor=#6c8ebf;" vertex="1" parent="WIyWlLk6GJQsqaUBKTNV-1">
          <mxGeometry x="200" y="940" width="120" height="60" as="geometry" />
        </mxCell>
        <mxCell id="FsK_rZOVY-yfSty9KPIe-30" value="" style="edgeStyle=orthogonalEdgeStyle;html=1;verticalAlign=bottom;endArrow=open;endSize=8;strokeColor=#ff0000;rounded=0;entryX=0.5;entryY=0;entryDx=0;entryDy=0;exitX=0.5;exitY=1;exitDx=0;exitDy=0;strokeWidth=2;" edge="1" parent="WIyWlLk6GJQsqaUBKTNV-1" source="FsK_rZOVY-yfSty9KPIe-26" target="FsK_rZOVY-yfSty9KPIe-25">
          <mxGeometry relative="1" as="geometry">
            <mxPoint x="270" y="210" as="targetPoint" />
            <mxPoint x="271" y="1020" as="sourcePoint" />
          </mxGeometry>
        </mxCell>
      </root>
    </mxGraphModel>
  </diagram>
</mxfile>
